 <svg version="1.0" xmlns="http://www.w3.org/2000/svg" width="700.000000pt" height="700.000000pt" viewBox="0 0 700.000000 700.000000" preserveAspectRatio="xMidYMid meet">
<metadata>
Created by potrace 1.12, written by Peter Selinger 2001-2015
</metadata>
<g transform="translate(0.000000,700.000000) scale(0.100000,-0.100000)" fill="#000000" stroke="none">
<path d="M5250 5008 c-33 -18 -50 -54 -49 -103 2 -75 1 -74 159 -242 19 -21
46 -48 60 -61 14 -12 60 -59 103 -105 134 -142 375 -391 408 -422 18 -16 44
-43 58 -58 14 -15 55 -58 91 -95 36 -37 77 -81 91 -97 14 -17 42 -43 62 -58
47 -35 51 -77 10 -104 -26 -17 -176 -18 -3003 -23 -2950 -5 -2975 -5 -3015
-25 -48 -24 -67 -68 -59 -135 8 -61 19 -79 62 -98 34 -16 264 -17 3012 -22
2383 -4 2979 -8 2997 -18 20 -11 43 -41 43 -56 0 -3 -89 -96 -197 -206 -109
-110 -216 -219 -239 -242 -22 -24 -51 -53 -65 -66 -13 -12 -57 -57 -96 -100
-125 -133 -243 -256 -266 -277 -12 -11 -40 -40 -62 -64 -22 -24 -64 -67 -94
-96 -48 -47 -54 -58 -59 -103 -10 -104 30 -152 128 -152 63 0 102 19 129 63
11 19 39 47 62 63 22 15 54 47 70 70 16 24 49 57 74 75 25 18 45 37 45 42 0 5
33 42 73 83 39 40 137 142 217 225 80 83 206 213 280 289 290 295 497 521 510
556 13 34 12 94 -3 120 -13 24 -193 219 -302 329 -38 39 -131 135 -205 214
-74 78 -196 205 -270 281 -74 77 -205 211 -290 300 -85 88 -166 170 -180 183
-14 12 -51 49 -82 81 -56 59 -57 60 -120 63 -39 3 -72 -1 -88 -9z"></path>
</g>
</svg>