<?xml version="1.0" encoding="UTF-8" standalone="no"?>
<!DOCTYPE svg PUBLIC "-//W3C//DTD SVG 1.1//EN" "http://www.w3.org/Graphics/SVG/1.1/DTD/svg11.dtd">
<svg version="1.1" xmlns="http://www.w3.org/2000/svg" xmlns:xlink="http://www.w3.org/1999/xlink" preserveAspectRatio="xMidYMid meet" viewBox="0 0 640 640" width="640" height="640"><defs><path d="M401.31 201.35C392.53 205.24 392.53 211.71 401.31 215.6C412.28 220.46 467.15 244.79 565.92 288.59C240 288.59 58.94 288.59 22.73 288.59C10.06 288.6 0 293.06 0 298.68C0 304.29 10.06 308.9 22.73 308.9C58.94 308.9 240 308.9 565.92 308.9C467.15 352.61 412.28 376.9 401.31 381.76C392.53 385.78 392.53 392.27 401.31 396.15C410.39 400.18 425.02 400.18 433.77 396.15C454.13 387.12 617 314.91 637.35 305.88C646.44 301.99 646.44 295.51 637.35 291.63C623.78 285.61 555.92 255.52 433.77 201.35C418.19 198.66 407.37 198.66 401.31 201.35Z" id="e2o6M1Ou9w"></path></defs><g><g><g><use xlink:href="#e2o6M1Ou9w" opacity="1" fill="#1e201d" fill-opacity="1"></use><g><use xlink:href="#e2o6M1Ou9w" opacity="1" fill-opacity="0" stroke="#000000" stroke-width="1" stroke-opacity="0"></use></g></g></g></g></svg>